<svg id="SvgjsSvg1001" width="288" height="288" xmlns="http://www.w3.org/2000/svg" version="1.1" xmlns:xlink="http://www.w3.org/1999/xlink" xmlns:svgjs="http://svgjs.com/svgjs"><defs id="SvgjsDefs1002"></defs><g id="SvgjsG1008"><svg xmlns="http://www.w3.org/2000/svg" viewBox="0 0 48 48" width="288" height="288"><path fill="none" d="M0 0h48v48H0z" class="selectable"></path><path d="M13.51 9.69 9.93 6.1 7.1 8.93l3.59 3.59 2.82-2.83zM8 21H2v4h6v-4zM26 1.1h-4V7h4V1.1zm14.9 7.83L38.07 6.1l-3.59 3.59 2.83 2.83 3.59-3.59zm-6.41 27.38 3.59 3.59 2.83-2.83-3.59-3.59-2.83 2.83zM40 21v4h6v-4h-6zM24 11c-6.63 0-12 5.37-12 12s5.37 12 12 12 12-5.37 12-12-5.37-12-12-12zm-2 33.9h4V39h-4v5.9zM7.1 37.07l2.83 2.83 3.59-3.59-2.83-2.83-3.59 3.59z" fill="#ffffff" class="svgShape color000000-1 selectable"></path></svg></g></svg>